<svg width="300" height="75.5" xmlns="http://www.w3.org/2000/svg">

 <g>
  <title>Layer 1</title>
  <g stroke-width="0" id="svg_1" fill="none">
   <path id="svg_2" d="m96.2056,2.19229c-4.80367,2.28264 -8.4068,6.12951 -11.03957,10.49038c-4.23048,-7.00198 -10.95683,-12.68267 -21.14188,-12.68267c-10.19107,0 -22.68393,8.51584 -22.68393,22.89901c0,14.56389 12.34241,21.46662 18.45495,25.36385c6.53378,4.16238 17.68317,11.73169 25.37086,25.73713c7.69069,-14.00692 18.83858,-21.57475 25.37386,-25.73713c4.59155,-2.93144 12.70649,-7.55894 16.45254,-15.86296l-30.78683,-30.20762zm-0.36859,31.03565l0,-27.36653l27.79601,27.36653l-27.79601,0z" fill="#4D90FE"/>
   <polygon id="svg_3" points="95.61983754377252,33.324501037597656 95.61983754377252,5.880797386169434 123.50659292818818,33.324501037597656 " fill="#FFF"/>
   <path id="svg_4" d="m1.99997,58.33156l3.4441,0c1.09291,0 2.35269,-1.48419 2.35269,-2.47414l0,-35.86842c0,-0.98995 -1.25978,-2.39152 -2.35269,-2.39152l-3.4441,0l0,-8.65876l27.64295,0l0,8.65876l-3.52828,0c-1.09291,0 -2.2685,1.40157 -2.2685,2.39152l0,35.86842c0,0.98995 1.17559,2.47414 2.2685,2.47414l3.52828,0l0,8.32828l-27.64295,0l0,-8.32828zm129.08961,0.13868l3.47866,0c1.10343,0 2.37524,-1.49895 2.37524,-2.49775l0,-36.22398c0,-0.9988 -1.27331,-2.41512 -2.37524,-2.41512l-3.47866,0l0,-8.74285l27.91504,0l0,8.74285l-3.56436,0c-1.10343,0 -2.29105,1.41632 -2.29105,2.41512l0,36.2225c0,0.9988 1.18762,2.49774 2.29105,2.49774l3.56436,0l0,8.4109l-27.91504,0l0,-8.40942zm33.77045,0l2.88486,0c1.18762,0 2.46093,-1.49895 2.46093,-2.49775l0,-36.22398c0,-0.9988 -1.27181,-2.41512 -2.46093,-2.41512l-2.88486,0l0,-8.74285l28.17061,0l9.24839,33.80737l0.25406,0l9.33408,-33.80737l28.08492,0l0,8.74285l-2.96905,0c-1.10343,0 -2.37524,1.41632 -2.37524,2.41512l0,36.2225c0,0.9988 1.27181,2.49774 2.37524,2.49774l2.96905,0l0,8.4109l-26.64174,0l0,-8.4109l5.34428,0l0,-38.05339l-0.25406,0l-13.1525,46.46577l-10.18195,0l-12.98262,-46.46577l-0.25406,0l0,38.05487l5.59984,0l0,8.4109l-22.56926,0l0,-8.4109l0,0zm76.28118,-20.40246c0,-19.40217 11.20119,-30.22672 29.5281,-30.22672c4.32805,0 7.80672,0.41605 9.67383,0.74947l11.36957,0l0,19.15284l-10.5202,0l-1.61306,-8.49352c-1.61306,-0.58276 -4.15666,-1.0829 -7.2114,-1.0829c-8.23064,0 -14.08605,5.41302 -14.08605,19.23546c0,13.23968 3.98829,20.31835 12.55718,20.31835c2.97055,0 4.5821,-0.24933 6.27935,-0.74947l0,-10.2418l-5.09173,0l0,-8.49352l24.77613,0l0,8.57614l-1.69724,0c-1.18762,0 -2.37524,1.49895 -2.37524,2.49775l0,17.5698l-8.23064,0c0,0 -0.76368,-1.74828 -2.37674,-1.74828c-3.05474,1.49895 -7.12721,2.49775 -12.30313,2.49775c-18.58096,0 -28.67872,-10.40851 -28.67872,-29.56135z" fill="#000"/>
   <g id="svg_5" fill="#4D90FE"/>
  </g>
 </g>
</svg>