<?xml version="1.0" encoding="utf-8"?>
<!-- Generator: Adobe Illustrator 16.0.0, SVG Export Plug-In . SVG Version: 6.00 Build 0)  -->
<!DOCTYPE svg PUBLIC "-//W3C//DTD SVG 1.1//EN" "http://www.w3.org/Graphics/SVG/1.1/DTD/svg11.dtd">
<svg version="1.1" id="Layer_1" xmlns="http://www.w3.org/2000/svg" xmlns:xlink="http://www.w3.org/1999/xlink" x="0px" y="0px"
	 width="300px" height="90px" viewBox="0 0 300 90" enable-background="new 0 0 300 90" xml:space="preserve">
<g>
	<g>
		<path fill="#176A80" d="M120.041,44.775v17.971c0,1.061-0.323,1.879-0.968,2.455c-0.646,0.574-1.497,0.861-2.557,0.861
			c-1.014,0-1.844-0.287-2.488-0.861c-0.646-0.576-0.968-1.395-0.968-2.455V44.844c0-2.809-0.508-4.849-1.521-6.116
			c-1.014-1.267-2.604-1.9-4.769-1.9c-2.535,0-4.54,0.864-6.013,2.592c-1.476,1.727-2.211,4.089-2.211,7.085v16.242
			c0,1.061-0.323,1.879-0.969,2.455c-0.645,0.574-1.497,0.861-2.557,0.861c-1.013,0-1.843-0.287-2.488-0.861
			c-0.646-0.576-0.967-1.395-0.967-2.455V44.844c0-2.809-0.507-4.849-1.521-6.116c-1.015-1.267-2.604-1.9-4.769-1.9
			c-2.536,0-4.551,0.864-6.047,2.592c-1.498,1.727-2.247,4.089-2.247,7.085v16.242c0,1.061-0.323,1.879-0.968,2.455
			c-0.646,0.574-1.474,0.861-2.488,0.861c-1.015,0-1.855-0.287-2.523-0.861c-0.667-0.576-1.001-1.395-1.001-2.455V34.615
			c0-1.013,0.346-1.82,1.036-2.419c0.691-0.599,1.521-0.898,2.488-0.898c0.967,0,1.763,0.289,2.385,0.864
			c0.621,0.576,0.932,1.371,0.932,2.384v2.558c1.014-1.935,2.42-3.41,4.217-4.423c1.796-1.013,3.871-1.52,6.22-1.52
			c2.58,0,4.711,0.53,6.394,1.589c1.681,1.061,2.937,2.696,3.767,4.908c1.014-1.981,2.51-3.56,4.492-4.735
			c1.98-1.175,4.24-1.762,6.774-1.762C116.26,31.16,120.041,35.698,120.041,44.775"/>
		<path fill="#176A80" d="M155.729,32.197c0.622,0.6,0.935,1.429,0.935,2.488v28.13c0,0.969-0.324,1.754-0.969,2.352
			c-0.646,0.598-1.497,0.896-2.559,0.896c-0.967,0-1.751-0.289-2.349-0.863c-0.6-0.576-0.899-1.346-0.899-2.314v-2.627
			c-1.06,1.936-2.522,3.412-4.389,4.424c-1.866,1.016-3.951,1.52-6.255,1.52c-8.201,0-12.302-4.514-12.302-13.545V34.685
			c0-1.059,0.311-1.888,0.933-2.488c0.622-0.599,1.486-0.899,2.592-0.899c1.06,0,1.9,0.3,2.522,0.899
			c0.622,0.6,0.933,1.429,0.933,2.488v17.903c0,2.717,0.554,4.723,1.659,6.012s2.81,1.936,5.113,1.936
			c2.719,0,4.896-0.877,6.534-2.627c1.634-1.75,2.452-4.078,2.452-6.98V34.685c0-1.013,0.323-1.831,0.97-2.453
			c0.644-0.622,1.495-0.934,2.556-0.934C154.267,31.298,155.109,31.597,155.729,32.197"/>
		<path fill="#176A80" d="M213.413,44.775v17.971c0,1.061-0.322,1.879-0.967,2.455c-0.646,0.574-1.498,0.861-2.558,0.861
			c-1.014,0-1.844-0.287-2.489-0.861c-0.646-0.576-0.967-1.395-0.967-2.455V44.844c0-2.809-0.508-4.849-1.521-6.116
			c-1.013-1.267-2.604-1.9-4.769-1.9c-2.534,0-4.54,0.864-6.013,2.592c-1.477,1.727-2.212,4.089-2.212,7.085v16.242
			c0,1.061-0.323,1.879-0.968,2.455c-0.646,0.574-1.498,0.861-2.559,0.861c-1.013,0-1.843-0.287-2.487-0.861
			c-0.646-0.576-0.968-1.395-0.968-2.455V44.844c0-2.809-0.507-4.849-1.521-6.116c-1.013-1.267-2.602-1.9-4.77-1.9
			c-2.534,0-4.551,0.864-6.046,2.592c-1.498,1.727-2.248,4.089-2.248,7.085v16.242c0,1.061-0.322,1.879-0.967,2.455
			c-0.646,0.574-1.475,0.861-2.487,0.861c-1.016,0-1.855-0.287-2.523-0.861c-0.669-0.576-1.002-1.395-1.002-2.455V34.615
			c0-1.013,0.346-1.82,1.036-2.419c0.691-0.599,1.521-0.898,2.489-0.898c0.967,0,1.761,0.289,2.384,0.864
			c0.623,0.576,0.933,1.371,0.933,2.384v2.558c1.015-1.935,2.419-3.41,4.216-4.423c1.798-1.013,3.871-1.52,6.221-1.52
			c2.581,0,4.711,0.53,6.393,1.589c1.681,1.061,2.938,2.696,3.768,4.908c1.013-1.981,2.509-3.56,4.492-4.735
			c1.98-1.175,4.239-1.762,6.773-1.762C209.634,31.16,213.413,35.698,213.413,44.775"/>
		<path fill="#176A80" d="M248.565,32.197c0.624,0.6,0.935,1.429,0.935,2.488v28.13c0,0.969-0.323,1.754-0.969,2.352
			s-1.496,0.896-2.557,0.896c-0.967,0-1.751-0.289-2.35-0.863c-0.6-0.576-0.898-1.346-0.898-2.314v-2.627
			c-1.061,1.936-2.523,3.412-4.39,4.424c-1.865,1.016-3.95,1.52-6.254,1.52c-8.201,0-12.302-4.514-12.302-13.545V34.685
			c0-1.059,0.311-1.888,0.934-2.488c0.621-0.599,1.485-0.899,2.592-0.899c1.059,0,1.899,0.3,2.522,0.899
			c0.621,0.6,0.933,1.429,0.933,2.488v17.903c0,2.717,0.552,4.723,1.659,6.012c1.105,1.289,2.81,1.936,5.114,1.936
			c2.718,0,4.895-0.877,6.532-2.627c1.635-1.75,2.453-4.078,2.453-6.98V34.685c0-1.013,0.321-1.831,0.967-2.453
			c0.645-0.622,1.496-0.934,2.557-0.934C247.105,31.298,247.945,31.597,248.565,32.197"/>
		<path fill="#176A80" d="M286.753,62.814c0,0.877-0.301,1.637-0.899,2.281c-0.6,0.645-1.314,0.967-2.142,0.967
			c-0.878,0-1.659-0.322-2.352-0.967l-17.21-15.207v12.789c0,1.105-0.323,1.947-0.968,2.523c-0.646,0.574-1.474,0.861-2.488,0.861
			c-1.014,0-1.854-0.287-2.521-0.861c-0.668-0.576-1.002-1.418-1.002-2.523V20.032c0-1.106,0.334-1.946,1.002-2.522
			c0.667-0.577,1.508-0.864,2.521-0.864c1.015,0,1.843,0.288,2.488,0.864c0.645,0.576,0.968,1.417,0.968,2.522v27.095l15.758-14.724
			c0.784-0.691,1.545-1.036,2.281-1.036c0.875,0,1.637,0.323,2.283,0.966c0.643,0.646,0.966,1.407,0.966,2.282
			c0,0.876-0.391,1.682-1.175,2.419L271.962,48.3l13.546,11.958C286.337,60.951,286.753,61.803,286.753,62.814"/>
		<path fill="#176A80" d="M292.559,23.418c-0.786-0.737-1.176-1.705-1.176-2.903s0.39-2.153,1.176-2.867
			c0.78-0.715,1.841-1.072,3.178-1.072c1.29,0,2.338,0.357,3.146,1.072c0.805,0.714,1.208,1.67,1.208,2.867
			c0,1.199-0.392,2.167-1.174,2.903c-0.785,0.738-1.845,1.105-3.181,1.105C294.399,24.524,293.34,24.156,292.559,23.418
			 M293.214,65.234c-0.667-0.555-1.001-1.383-1.001-2.488V34.684c0-1.105,0.334-1.946,1.001-2.522
			c0.668-0.576,1.508-0.864,2.522-0.864c1.014,0,1.843,0.289,2.489,0.864c0.645,0.576,0.967,1.417,0.967,2.522v28.062
			c0,1.105-0.322,1.934-0.967,2.488c-0.646,0.553-1.476,0.828-2.489,0.828C294.722,66.063,293.883,65.787,293.214,65.234"/>
		<path fill="#1D95A4" d="M38.944,59.75l-5.074-9.441c-0.288-0.535-0.945-0.749-1.494-0.486l-13.189,6.301
			c-0.218,0.105-0.397,0.273-0.512,0.488l-8.112,15.09c-0.017,0.031-0.033,0.063-0.046,0.096c-0.069,0.148-0.109,0.311-0.109,0.486
			c0,0.631,0.51,1.139,1.139,1.139h1.174c0.169,0,0.336-0.039,0.489-0.111l25.221-11.994c0.281-0.133,0.495-0.377,0.592-0.672
			C39.12,60.348,39.092,60.025,38.944,59.75"/>
		<path fill="#17697E" d="M55.188,59.445l-5.794-10.773c-0.198-0.369-0.583-0.598-1.002-0.598H36.274
			c-0.401,0-0.771,0.21-0.978,0.553c-0.205,0.347-0.215,0.773-0.024,1.125l11.847,22.043c0.199,0.367,0.584,0.598,1.003,0.598h1.688
			c0.47,0,0.892-0.289,1.062-0.727l4.375-11.271C55.366,60.086,55.345,59.738,55.188,59.445"/>
		<path fill="#17697E" d="M26.944,17.672c-0.198-0.37-0.583-0.6-1.003-0.6h-1.688c-0.42,0-0.805,0.231-1.003,0.6L0.045,60.832
			c-0.164,0.305-0.181,0.666-0.046,0.986l4.622,10.91C4.8,73.15,5.213,73.424,5.67,73.424h1.632c0.419,0,0.804-0.23,1.003-0.6
			L32.16,28.452c0.181-0.337,0.181-0.74,0-1.078L26.944,17.672z"/>
	</g>
</g>
</svg>
